<?xml version="1.0" encoding="iso-8859-1"?>
<!-- Generator: Adobe Illustrator 19.0.0, SVG Export Plug-In . SVG Version: 6.00 Build 0)  -->
<svg version="1.1" id="Capa_1" xmlns="http://www.w3.org/2000/svg" xmlns:xlink="http://www.w3.org/1999/xlink" x="0px" y="0px"
	 viewBox="0 0 512.001 512.001" style="enable-background:new 0 0 512.001 512.001;" xml:space="preserve">
<path style="fill:#EFEFEF;" d="M500.654,364.348c-1.802-9.116-2.83-24.275-20.291-31.615l-42.321-15.766l-19.881-10.503v-21.022
	c-18.201,9.163-40.541,9.867-59.14,1.274l0.012,19.748l-20.36,10.686l-40.595,15.087c-9.665,3.61-17.834,11.552-18.976,22.671
	c-10.227,56.878-9.864,53.881-13.311,74.617c-1.63,9.806,5.938,18.728,15.878,18.728h212.47c10.403,0,18.36-9.27,16.787-19.553
	C507.751,407.94,508.07,410.54,500.654,364.348z"/>
<path style="fill:#EAB883;" d="M422.702,308.864L422.702,308.864l-4.541-2.399v-21.023c-18.201,9.163-40.541,9.867-59.14,1.274
	l0.012,19.748l-4.481,2.352v0.047l33.028,25.405L422.702,308.864z"/>
<path style="fill:#E0A773;" d="M387.58,292.734c-9.8,0.076-19.612-1.885-28.558-6.018l0.012,19.748l-4.481,2.352v0.047
	l33.027,25.405V292.734z"/>
<path style="fill:#93482B;" d="M486.605,260.87c-14.004-22.708-8.947-40.917-10.027-70.414c0-49.435-37.276-89.768-84.078-92.047
	c-50.524-2.461-92.446,40.551-92.446,93.358v34.659c0,14.282-4.525,25.817-9.845,34.444c-4.979,8.074,0.647,18.699,9.845,18.699
	c1.45,0,20.085,0,43.043,0c13.428,0,119.354,0,133.481,0v-0.228l0.183,0.228C485.958,279.569,491.584,268.944,486.605,260.87z"/>
<path style="fill:#873921;" d="M347.074,260.87c5.32-8.628,9.845-20.163,9.845-34.444v-34.659c0-40.911,25.164-75.937,59.994-88.5
	c-7.714-2.757-15.903-4.444-24.413-4.859c-50.524-2.461-92.446,40.551-92.446,93.358v34.659c0,14.282-4.525,25.817-9.845,34.444
	c-4.979,8.074,0.647,18.699,9.845,18.699c1.45,0,20.085,0,43.043,0h13.821C347.721,279.569,342.095,268.944,347.074,260.87z"/>
<g>
	<path style="fill:#EAB883;" d="M452.213,196.258h-1.827c0,13.294,0,31.406,0,40.753h1.827c13.439,0,24.334-9.122,24.334-20.377
		C476.547,205.38,465.652,196.258,452.213,196.258z"/>
	<path style="fill:#EAB883;" d="M325.991,196.432h-1.811c-13.324,0-24.126,9.044-24.126,20.202
		c0,11.159,10.802,20.203,24.126,20.203h1.811V196.432z"/>
</g>
<g>
	<path style="fill:#E0A773;" d="M450.386,219.418c0,6.859,0,13.198,0,17.593h1.827c18.047,0,29.61-15.801,21.955-29.173
		C466.816,220.681,450.692,219.345,450.386,219.418z"/>
	<path style="fill:#E0A773;" d="M302.456,207.838c-7.69,13.291,3.836,28.999,21.724,28.999h1.811v-17.593
		C325.755,219.188,309.727,220.406,302.456,207.838z"/>
</g>
<path style="fill:#DDDDDD;" d="M416.523,353.195l1.639-46.73l-30.581,27.805C413.671,351.998,413.11,353,416.523,353.195z"/>
<path style="fill:#666666;" d="M510.926,428.701c-3.176-20.762-2.856-18.161-10.273-64.353c-1.802-9.116-2.83-24.275-20.291-31.615
	c-4.064-1.514-38.445-14.322-42.321-15.766c-2.863-1.513-19.704-10.41-19.881-10.503l-4.971,141.79h80.949
	C504.542,448.254,512.499,438.984,510.926,428.701z"/>
<path style="fill:#CCCCCC;" d="M362.099,352.002l25.481-17.733l-28.547-27.805l1.017,46.498
	C360.758,352.765,361.451,352.453,362.099,352.002z"/>
<path style="fill:#666666;" d="M338.673,317.151l-28.821,10.711c-10.261,3.84-16.463,5.355-22.388,10.813
	c-4.829,4.445-7.691,9.704-8.363,16.233c-11.305,62.558-10.688,58.835-13.311,74.617c-1.63,9.806,5.938,18.728,15.878,18.728h80.465
	l-3.101-141.79L338.673,317.151z"/>
<path style="fill:#535454;" d="M292.004,429.526C291.917,430.002,291.936,429.9,292.004,429.526
	c14.73-95.368,12.23-94.639,23.597-103.8c-15.252,5.668-34.547,10.203-36.5,29.183c-3.046,16.717-10.511,57.771-13.311,74.617
	c-1.63,9.806,5.938,18.728,15.878,18.728h26.213C297.941,448.254,290.374,439.332,292.004,429.526z"/>
<g>
	<path style="fill:#898989;" d="M433.544,448.254l11.972-53.384c0.452-2.015-0.091-4.125-1.46-5.672l-10.1-11.41
		c-1.296-1.464-1.369-3.641-0.176-5.189l12.664-16.427c1.442-1.87,1.9-4.319,1.231-6.583l-9.633-32.621
		c-1.732-0.915,3.699,1.954-19.881-10.503l-4.971,141.79L433.544,448.254L433.544,448.254z"/>
	<path style="fill:#898989;" d="M328.716,356.172l12.664,16.427c1.194,1.548,1.12,3.726-0.176,5.189l-10.1,11.41
		c-1.369,1.547-1.912,3.657-1.46,5.672l11.972,53.384h20.518l-3.101-141.79l-20.36,10.686l-11.187,32.439
		C326.817,351.854,327.274,354.302,328.716,356.172z"/>
</g>
<path style="fill:#F7CF9C;" d="M325.881,195.629v42.982c0,21.697,12.225,41.666,31.734,51.163
	c46.895,22.828,93.136-10.713,93.136-55.067c0-1.049,0-52.072,0-50.293c0-3.738-4.283-5.822-7.247-3.544
	c-5.414,4.16-14.047,9.222-26.51,12.251c-4.169,1.013-7.586-1.672-7.586-5.962v-7.877c0-1.945-2.129-3.137-3.785-2.117
	c-11.856,7.297-43.633,23.905-75.648,15.315C327.908,191.924,325.881,193.49,325.881,195.629z"/>
<path style="fill:#EAB883;" d="M388.615,289.774c-19.508-9.496-31.734-29.466-31.734-51.163v-44.14
	c-8.645,0.853-17.765,0.46-26.907-1.993c-2.066-0.554-4.093,1.012-4.093,3.151v42.982c0,21.697,12.225,41.666,31.734,51.163
	c16.036,7.806,31.994,9.018,46.053,5.463C398.696,294.029,393.659,292.23,388.615,289.774z"/>
<path style="fill:#DDDDDD;" d="M395.209,399.996v-32.949c0-4.266-3.458-7.723-7.723-7.723c-4.265,0-7.723,3.457-7.723,7.723v32.949
	c0,16.094,0,39.28,0,48.258h15.445C395.209,437.655,395.209,415.51,395.209,399.996z"/>
<circle style="fill:#F94A46;" cx="447.02" cy="65.122" r="64.981"/>
<g>
	<path style="fill:#EFEFEF;" d="M224.195,511.859H15.515c-8.411,0-15.229-6.818-15.229-15.229l0,0
		c0-8.411,6.818-15.229,15.229-15.229h208.68c8.411,0,15.229,6.818,15.229,15.229l0,0
		C239.424,505.041,232.606,511.859,224.195,511.859z"/>
	<path style="fill:#EFEFEF;" d="M496.771,511.859h-208.68c-8.411,0-15.229-6.818-15.229-15.229l0,0
		c0-8.411,6.818-15.229,15.229-15.229h208.68c8.411,0,15.229,6.818,15.229,15.229l0,0C512,505.041,505.182,511.859,496.771,511.859z
		"/>
</g>
<path style="fill:#70B5E8;" d="M15.515,481.4c-8.411,0-15.229,6.818-15.229,15.229s6.818,15.229,15.228,15.229h19.077
	c17.28,0,67.842,0,85.264,0V481.4C89.147,481.4,46.929,481.4,15.515,481.4z"/>
<path style="fill:#52A5D8;" d="M30.89,496.629c0-8.411,6.819-15.229,15.229-15.229c-10.161,0-19.451,0-30.604,0
	c-8.411,0-15.229,6.818-15.229,15.229s6.818,15.229,15.228,15.23c11.135,0,20.461,0,30.604,0
	C37.708,511.858,30.89,505.04,30.89,496.629z"/>
<path style="fill:#F94A46;" d="M288.091,481.4c-8.411,0-15.229,6.818-15.229,15.229s6.818,15.229,15.228,15.229h99.392V481.4
	H288.091z"/>
<g>
	<path style="fill:#535454;" d="M314.957,448.254v-32.367c0-4.266-3.458-7.723-7.723-7.723c-4.265,0-7.723,3.457-7.723,7.723v32.367
		H314.957z"/>
	<path style="fill:#535454;" d="M475.153,448.254v-32.367c0-4.266-3.458-7.723-7.723-7.723c-4.265,0-7.723,3.457-7.723,7.723v32.367
		H475.153z"/>
</g>
<path style="fill:#EFEFEF;" d="M225.445,448.75c8.437,0,14.866-7.559,13.512-15.887l-13.411-82.477
	c-1.699-8.598-2.669-22.895-19.137-29.817c-1.537-0.645-5.037-1.61-4.967-1.589c-72.222-25.512-5.756-2.034-37.699-13.28
	l-15.999-9.906v-18.789c-17.167,8.642-38.236,9.306-55.777,1.202l0.011,17.588l-16.45,10.077l-8.477,2.915h-0.019l0.003,0.006
	c-0.109,0.038-34.782,12.313-32.545,11.309c-9.116,3.405-16.82,10.896-17.898,21.382c-0.453,4.408-10.041,57.582-16.388,92.569
	c-1.389,7.658,4.496,14.697,12.279,14.697H225.445z"/>
<path style="fill:#DDDDDD;" d="M31.094,434.053c18.368-114.097,16.084-108.161,19.789-113.894c2.466-3.817,5.774-6.822,9.584-9.042
	c-26.412,9.333-26.112,9.045-25.977,8.985c-9.115,3.404-16.82,10.896-17.898,21.382c-0.453,4.408-10.041,57.582-16.388,92.569
	c-1.389,7.658,4.496,14.697,12.279,14.697h30.89C35.59,448.75,29.705,441.711,31.094,434.053z"/>
<path style="fill:#EAB883;" d="M118.903,322.017l33.131-23.568l-4.289-2.655v-18.789c-17.167,8.642-38.236,9.306-55.777,1.202
	l0.011,17.588l-5.11,3.13L118.903,322.017z"/>
<path style="fill:#E0A773;" d="M118.903,322.017v-38.135c-9.243,0.071-18.497-1.778-26.935-5.676l0.011,17.588l-5.11,3.13
	L118.903,322.017z"/>
<path style="fill:#93482B;" d="M184.782,129.724c-0.054,0.009-0.109,0.015-0.163,0.023C168.19,109.143,143.64,99.348,119.11,99.49
	c-0.068,0.111-0.14,0.218-0.208,0.328c-0.068-0.11-0.141-0.218-0.208-0.328c-24.53-0.141-49.08,9.653-65.509,30.257
	c-0.054-0.009-0.109-0.015-0.162-0.023c-21.656,26.182-18.676,52.811-18.662,83.933c18.498,0,149.612,0,169.082,0
	C203.444,182.591,206.602,156.104,184.782,129.724z"/>
<path style="fill:#873921;" d="M88.386,208.181c-0.004-25.276-2.95-52.327,18.663-78.456c0.054,0.009,0.109,0.015,0.162,0.023
	c10.355-12.986,23.936-21.673,38.704-26.29c-8.664-2.709-17.735-4.019-26.805-3.967c-0.068,0.111-0.14,0.218-0.208,0.328
	c-0.068-0.11-0.141-0.218-0.208-0.328c-24.53-0.141-49.08,9.653-65.509,30.257c-0.054-0.009-0.109-0.015-0.162-0.023
	c-21.554,26.058-18.673,52.329-18.662,83.933c6.772,0,47.294,0,54.026,0c0-0.695,0-1.362-0.001-2.014
	C88.386,210.457,88.386,209.306,88.386,208.181z"/>
<g>
	<path style="fill:#EAB883;" d="M59.28,200.42c-15.516-5.529-32.36,4.754-32.36,19.756c0,14.998,16.842,25.286,32.36,19.756V200.42z
		"/>
	<path style="fill:#EAB883;" d="M178.764,200.547c15.416-5.494,32.151,4.723,32.151,19.628c0,14.901-16.733,25.123-32.151,19.628
		V200.547z"/>
</g>
<g>
	<path style="fill:#E0A773;" d="M29.196,211.037c-1.451,2.736-2.277,5.821-2.277,9.138c0,14.998,16.842,25.286,32.36,19.756v-18.275
		C47.193,225.963,34.306,220.673,29.196,211.037z"/>
	<path style="fill:#E0A773;" d="M178.764,221.529v18.275c19.844,7.072,39.074-11.522,29.856-28.767
		C203.522,220.573,190.748,225.799,178.764,221.529z"/>
</g>
<g>
	<path style="fill:#DDDDDD;" d="M60.799,383.238c0-4.266-3.458-7.723-7.723-7.723s-7.723,3.457-7.723,7.723v65.512h15.445
		L60.799,383.238L60.799,383.238z"/>
	<path style="fill:#DDDDDD;" d="M192.477,383.238c0-4.266-3.458-7.723-7.723-7.723s-7.723,3.457-7.723,7.723v65.512h15.445v-65.512
		H192.477z"/>
	<path style="fill:#DDDDDD;" d="M91.979,295.794l26.924,26.224l-24.032,16.724c-3.507,2.441-8.375,0.806-9.698-3.257l-9.645-29.613
		L91.979,295.794z"/>
	<path style="fill:#DDDDDD;" d="M147.745,295.794l-28.842,26.224l24.032,16.725c3.507,2.441,8.375,0.806,9.698-3.257l11.111-29.785
		L147.745,295.794z"/>
</g>
<path style="fill:#52A5D8;" d="M129.821,359.339c-7.637,0-14.199,0-21.836,0L92.882,448.75c16.56,0,35.481,0,52.042,0
	L129.821,359.339z"/>
<path style="fill:#F7CF9C;" d="M177.535,179.383c1.566,0.151,2.77,1.45,2.77,3.023c0,51.686,0.034,44.129-0.087,46.533
	c-3.512,69.302-102.019,80.078-120.477,13.202c-1.017-3.698-1.681-7.151-2.016-11.443c-0.343-4.341-0.201-27.904-0.201-27.828
	c0-12.037,10.682-21.22,22.596-19.501c18.763,2.708,46.151,1.656,70.048-18.771c2.456-2.099,6.182-1.421,7.75,1.403
	C160.88,171.333,166.768,178.344,177.535,179.383z"/>
<path style="fill:#EAB883;" d="M88.477,228.938c-0.119-2.374-0.088,4.966-0.087-44.706c-2.899-0.189-5.669-0.488-8.269-0.863
	c-11.913-1.72-22.596,7.464-22.596,19.501c0-0.075-0.143,23.488,0.201,27.828c0.334,4.292,0.999,7.744,2.016,11.443
	c10.225,37.045,45.009,50.251,74.606,42.893C110.515,279.107,90.044,259.851,88.477,228.938z"/>
<path style="fill:#70B5E8;" d="M118.903,322.017l-20.32,14.141l9.412,23.18c7.63,0,14.185,0,21.815,0l9.412-23.18L118.903,322.017z"
	/>
<path style="fill:#4297CC;" d="M129.821,359.339c-7.637,0-14.199,0-21.836,0L92.882,448.75h21.859l15.092-89.343L129.821,359.339z"
	/>
<path style="fill:#52A5D8;" d="M115.626,324.298l-17.043,11.861l9.412,23.18c7.63,0,14.185,0,21.815,0l0.022-0.054L115.626,324.298z
	"/>
<circle style="fill:#70B5E8;" cx="174.72" cy="65.622" r="64.981"/>
<path style="fill:#52A5D8;" d="M143.807,83.468c-15.425-26.717-9.706-59.821,11.941-79.991
	c-40.045,12.261-58.176,58.487-37.306,94.635c17.944,31.08,57.686,41.729,88.766,23.785c4.363-2.519,8.308-5.481,11.843-8.775
	C190.761,121.785,159.232,110.185,143.807,83.468z"/>
<path style="fill:#EF3C3C;" d="M416.119,83.468c-15.425-26.717-9.706-59.821,11.941-79.991
	c-40.045,12.261-58.176,58.487-37.306,94.635c20.85,36.113,69.944,43.582,100.61,15.01
	C463.072,121.785,431.544,110.185,416.119,83.468z"/>
<g>
	<circle style="fill:#EFEFEF;" cx="151.61" cy="45.102" r="11.216"/>
	<circle style="fill:#EFEFEF;" cx="197.83" cy="86.142" r="11.216"/>
	<path style="fill:#EFEFEF;" d="M152.624,96.301c-3.448-2.511-4.207-7.341-1.696-10.789l35.095-48.183
		c2.511-3.445,7.341-4.206,10.789-1.695c3.447,2.511,4.207,7.341,1.696,10.789l-35.095,48.183
		C160.913,98.036,156.088,98.824,152.624,96.301z"/>
</g>
<path style="fill:#EF3C3C;" d="M303.752,496.629c0-8.411,6.819-15.229,15.229-15.229h-30.89c-8.411,0-15.229,6.818-15.229,15.229
	s6.818,15.229,15.228,15.23h30.89C310.57,511.858,303.752,505.04,303.752,496.629z"/>
<g>
	<circle style="fill:#EFEFEF;" cx="423.91" cy="45.102" r="11.216"/>
	<circle style="fill:#EFEFEF;" cx="470.13" cy="86.142" r="11.216"/>
	<path style="fill:#EFEFEF;" d="M429.464,97.782c-1.577,0-3.168-0.482-4.54-1.481c-3.448-2.511-4.207-7.341-1.696-10.789
		l35.095-48.183c2.511-3.445,7.341-4.206,10.789-1.695c3.447,2.511,4.207,7.341,1.696,10.789l-35.095,48.183
		C434.202,96.68,431.85,97.782,429.464,97.782z"/>
</g>
<g>
</g>
<g>
</g>
<g>
</g>
<g>
</g>
<g>
</g>
<g>
</g>
<g>
</g>
<g>
</g>
<g>
</g>
<g>
</g>
<g>
</g>
<g>
</g>
<g>
</g>
<g>
</g>
<g>
</g>
</svg>
