<?xml version="1.0" encoding="UTF-8"?>
<svg xmlns="http://www.w3.org/2000/svg" xmlns:xlink="http://www.w3.org/1999/xlink" width="512" height="512" viewBox="0 0 58 58" version="1.1"><!-- Generator: Sketch 51.3 (57544) - http://www.bohemiancoding.com/sketch --><title>010 - Paintbrush</title><desc>Created with Sketch.</desc><defs/><g id="Page-1" stroke="none" stroke-width="1" fill="none" fill-rule="evenodd"><g id="010---Paintbrush" transform="translate(-1.000000, 0.000000)"><path d="M58.54,55.99 C57.379645,55.1918593 56.3391523,54.2321815 55.45,53.14 C54.9924684,52.5915641 54.5810669,52.0062368 54.22,51.39 C53.5211181,50.193096 52.9416617,48.9303499 52.49,47.62 C52.25,46.96 52.03,46.3 51.8,45.65 C51.2318251,43.5874085 50.2446206,41.6640618 48.9,40 C47.4282076,38.3554438 45.3635621,37.3626874 43.16,37.24 C42.5116392,37.1986708 41.8606751,37.2322256 41.22,37.34 C41.01,37.37 40.8,37.41 40.59,37.46 L38.79,39.079 L41.613,36.531 C42.4338921,35.7888756 42.500065,34.5226476 41.761,33.699 L41.483,33.39 C40.7439427,32.5695152 39.4797729,32.5032627 38.659,33.242 L37.6,34.2 C38.5746178,33.4587853 38.7816905,32.0762317 38.067,31.082 L37.79,30.773 C37.1181924,30.1223452 36.0936718,30.0026811 35.29,30.481 C35.246,30.374 35.19,30.259 35.144,30.15 C33.257,25.641 29.522,19.974 24.51,14.39 C23.934,13.7486667 23.3556667,13.125 22.775,12.519 C22.629,12.367 22.483,12.225 22.337,12.075 C21.91,11.635 21.483,11.196 21.056,10.775 C20.742,10.465 20.428,10.175 20.114,9.875 C19.856,9.63 19.598,9.375 19.341,9.14 C18.971,8.798 18.604,8.477 18.236,8.152 C18.036,7.976 17.836,7.792 17.636,7.621 C17.248,7.286 16.865,6.973 16.482,6.658 C16.306,6.514 16.129,6.358 15.954,6.221 C15.572,5.914 15.197,5.628 14.821,5.342 C14.648,5.211 14.474,5.072 14.303,4.942 C13.937,4.671 13.579,4.421 13.221,4.17 C13.046,4.048 12.869,3.918 12.696,3.801 C12.353,3.568 12.019,3.357 11.685,3.145 C11.504,3.03 11.32,2.908 11.142,2.8 C10.828,2.608 10.524,2.437 10.219,2.266 C10.029,2.159 9.837,2.046 9.651,1.946 C9.371,1.8 9.1,1.67 8.826,1.536 C8.626,1.436 8.433,1.342 8.243,1.256 C7.991,1.142 7.75,1.048 7.507,0.956 C7.307,0.878 7.112,0.796 6.921,0.729 C6.699,0.651 6.487,0.59 6.274,0.529 C6.082,0.472 5.888,0.414 5.704,0.37 C5.52,0.326 5.323,0.295 5.136,0.264 C4.949,0.233 4.774,0.2 4.6,0.183 C4.426,0.166 4.265,0.169 4.1,0.169 C3.94114654,0.166474956 3.78226861,0.172149168 3.624,0.186 C3.47753507,0.203507184 3.33226792,0.229889034 3.189,0.265 C3.05341874,0.293781612 2.9198136,0.331191052 2.789,0.377 C2.65918972,0.42794576 2.53348632,0.488791553 2.413,0.559 C2.347,0.597 2.267,0.617 2.205,0.659 L2.224,0.68 C2.12961033,0.732333075 2.03874923,0.790791501 1.952,0.855 C-1.216,3.714 3.739,14.421 13.023,24.755 C18.141,30.455 23.504,34.855 27.823,37.171 C27.2020677,37.9300483 27.1846783,39.0164682 27.781,39.795 L28.059,40.104 C28.9729278,40.9240899 30.375822,40.8590875 31.21,39.958 L34.441,37.043 L30.146,40.92 C29.3230771,41.6630769 29.257734,42.9323457 30,43.756 L30.278,44.065 C31.0167717,44.885781 32.2809584,44.952482 33.102,44.214 L36.729,40.939 L36.5,41.16 L34.18,43.25 C33.1234287,46.1871647 33.7563621,49.4669108 35.83,51.8 C39.68,56.09 48.79,57.67 57.85,58 C58.3376086,58.0153111 58.778257,57.7110161 58.9366543,57.2495978 C59.0950517,56.7881794 58.9342047,56.2774009 58.54,55.99 Z" id="Shape" fill="#59474E" fill-rule="nonzero"/><path d="M33.1,44.214 L41.611,36.531 C42.4318921,35.7888756 42.498065,34.5226476 41.759,33.699 L41.481,33.39 C40.7419427,32.5695152 39.4777729,32.5032627 38.657,33.242 L30.146,40.924 C29.3257002,41.6666939 29.2604232,42.9328887 30,43.756 L30.278,44.065 C31.0165823,44.8844682 32.2792299,44.9511353 33.1,44.214 Z" id="Shape" fill="#7F8C8D" fill-rule="nonzero"/><path d="M57.85,58 C48.79,57.67 39.68,56.09 35.83,51.8 C33.7563621,49.4669108 33.1234287,46.1871647 34.18,43.25 L36.5,41.16 L36.76,40.91 L37.03,40.66 L37.24,40.47 L37.39,40.34 L38.1,39.7 L40.59,37.46 C40.8,37.41 41.01,37.37 41.22,37.34 C41.8606751,37.2322256 42.5116392,37.1986708 43.16,37.24 C45.3635621,37.3626874 47.4282076,38.3554438 48.9,40 C50.2446206,41.6640618 51.2318251,43.5874085 51.8,45.65 C52.03,46.3 52.25,46.96 52.49,47.62 C52.9416617,48.9303499 53.5211181,50.193096 54.22,51.39 C54.5810669,52.0062368 54.9924684,52.5915641 55.45,53.14 C56.3391523,54.2321815 57.379645,55.1918593 58.54,55.99 C58.9342047,56.2774009 59.0950517,56.7881794 58.9366543,57.2495978 C58.778257,57.7110161 58.3376086,58.0153111 57.85,58 Z" id="Shape" fill="#464F5D"/><path d="M55.45,53.14 C55.2910888,53.2621739 55.0998985,53.3351739 54.9,53.35 C54.26,53.39 53.63,53.42 53.04,53.42 C40.12,53.42 37.08,43.81 36.5,41.16 L36.76,40.91 L37.03,40.66 L37.24,40.47 L37.39,40.34 L38.1,39.7 C38.2380454,39.8531735 38.3253649,40.0452763 38.35,40.25 C38.41,40.73 40.03,52.03 54.22,51.39 C54.5810669,52.0062368 54.9924684,52.5915641 55.45,53.14 Z" id="Shape" fill="#5E5F62" fill-rule="nonzero"/><path d="M52.49,47.62 C52.3862971,47.6519869 52.2785177,47.6688274 52.17,47.67 L52.12,47.67 C48.44,47.5 45.61,46.34 43.69,44.23 C42.0520733,42.3505785 41.1654197,39.9327562 41.2,37.44 C41.2018192,37.4058778 41.2085553,37.3721971 41.22,37.34 C41.8606751,37.2322256 42.5116392,37.1986708 43.16,37.24 C43.188646,37.3373555 43.2021373,37.43854 43.2,37.54 C43.18,37.86 42.97,45.02 51.8,45.65 C52.03,46.3 52.25,46.96 52.49,47.62 Z" id="Shape" fill="#5E5F62" fill-rule="nonzero"/><path d="M35.34,30.58 L32.09,33.51 L2.21,0.66 C5.62,-1.7 15.46,4.32 24.51,14.39 C29.68,20.15 33.51,26.01 35.34,30.58 Z" id="Shape" fill="#7F5B53" fill-rule="nonzero"/><path d="M31.212,39.962 L37.594,34.205 C38.5753602,33.4646855 38.786254,32.0763388 38.069,31.078 L37.792,30.769 C36.8780052,29.9485353 35.474807,30.0130859 34.64,30.914 L28.259,36.672 C27.2778007,37.4123047 27.066521,38.8002703 27.783,39.799 L28.061,40.108 C28.9749278,40.9280899 30.377822,40.8630875 31.212,39.962 Z" id="Shape" fill="#95A5A5" fill-rule="nonzero"/></g></g></svg>
