<?xml version="1.0" encoding="iso-8859-1"?>
<!-- Generator: Adobe Illustrator 19.0.0, SVG Export Plug-In . SVG Version: 6.00 Build 0)  -->
<svg version="1.1" id="Capa_1" xmlns="http://www.w3.org/2000/svg" xmlns:xlink="http://www.w3.org/1999/xlink" x="0px" y="0px"
	 viewBox="0 0 512 512" style="enable-background:new 0 0 512 512;" xml:space="preserve">
<path style="fill:#EFEFEF;" d="M142.206,233.626c-9.651,3.604-17.81,11.535-18.952,22.641l-10.579,58.541h239.759l-7.915-49.113
	c-1.8-9.104-2.827-24.244-20.264-31.574l-42.266-15.745l-19.855-10.49v-20.995c-18.178,9.151-40.489,9.854-59.063,1.272
	l0.012,19.723l-20.334,10.672L142.206,233.626z"/>
<path style="fill:#EAB883;" d="M266.669,210.282L266.669,210.282l-4.535-2.396v-20.995c-18.178,9.151-40.489,9.854-59.063,1.272
	l0.012,19.723l-4.475,2.349v0.047l32.985,25.372L266.669,210.282z"/>
<path style="fill:#E0A773;" d="M200.649,211.852l30.85,23.73v-41.409c-9.757,0.062-19.522-1.895-28.428-6.01l0.012,19.723
	l-2.434,1.277V211.852z"/>
<path style="fill:#93482B;" d="M330.489,162.35c-13.985-22.679-8.936-40.864-10.014-70.323c0-49.371-37.228-89.651-83.969-91.927
	c-50.458-2.458-92.326,40.499-92.326,93.237v34.614c0,14.263-4.519,25.783-9.832,34.399c-4.972,8.063,0.647,18.675,9.832,18.675
	c34.404,0,129.995,0,176.294,0v-0.228l0.183,0.228C329.843,181.025,335.462,170.414,330.489,162.35z"/>
<path style="fill:#873921;" d="M191.038,162.35c5.314-8.616,9.832-20.137,9.832-34.399V93.337c0-40.877,25.155-75.871,59.965-88.402
	c-7.688-2.742-15.849-4.421-24.329-4.834c-50.458-2.458-92.325,40.499-92.325,93.237v34.614c0,14.263-4.519,25.783-9.832,34.399
	c-4.972,8.063,0.646,18.675,9.832,18.675c11.875,0,44.971,0,56.69,0C191.684,181.025,186.065,170.414,191.038,162.35z"/>
<g>
	<path style="fill:#EAB883;" d="M296.141,97.823h-1.824c0,13.277,0,31.365,0,40.7h1.824c13.422,0,24.303-9.11,24.303-20.351
		C320.444,106.933,309.563,97.823,296.141,97.823z"/>
	<path style="fill:#EAB883;" d="M170.083,97.997h-1.808c-13.307,0-24.094,9.032-24.094,20.175c0,11.144,10.788,20.177,24.094,20.177
		h1.808V97.997z"/>
</g>
<g>
	<path style="fill:#E0A773;" d="M294.317,120.013c0,7.21,0,13.92,0,18.51h1.824c18.277,0,29.833-16.202,21.642-29.605
		C313.759,115.503,294.459,119.98,294.317,120.013z"/>
	<path style="fill:#E0A773;" d="M146.867,108.917c-8.257,13.364,3.338,29.432,21.408,29.432h1.808v-18.51
		C169.827,119.78,154.323,120.987,146.867,108.917z"/>
</g>
<path style="fill:#DDDDDD;" d="M260.497,254.556l1.636-46.67l-30.541,27.768C257.649,253.36,257.089,254.361,260.497,254.556z"/>
<path style="fill:#666666;" d="M352.435,314.809l-7.915-49.113c-1.8-9.104-2.827-24.244-20.264-31.574l-42.266-15.745l-19.855-10.49
	l-3.749,106.922L352.435,314.809L352.435,314.809z"/>
<path style="fill:#CCCCCC;" d="M231.593,235.654l-28.51-27.768l1.016,46.438C206.121,253.759,204.708,254.193,231.593,235.654z"/>
<path style="fill:#666666;" d="M112.675,314.809h92.746l-2.339-106.922l-20.334,10.672l-40.542,15.068
	c-7.705,2.877-14.604,8.688-17.468,16.293C123.84,252.303,124.963,246.814,112.675,314.809z"/>
<path style="fill:#535454;" d="M163.179,225.832c-15.533,6.733-32.49,8.288-38.44,24.087c-0.898,2.384,0.225-3.105-12.063,64.889
	h29.3l10.579-70.881C153.309,236.582,156.99,230.499,163.179,225.832z"/>
<g>
	<path style="fill:#898989;" d="M285.275,314.809l4.178-18.631c0.451-2.013-0.091-4.12-1.458-5.665l-10.087-11.395
		c-1.294-1.462-1.368-3.636-0.176-5.183l12.647-16.405c1.44-1.868,1.897-4.313,1.229-6.575l-9.62-32.579l-19.855-10.49
		l-3.749,106.922h26.891V314.809z"/>
	<path style="fill:#898989;" d="M172.805,257.529l12.647,16.405c1.192,1.546,1.118,3.721-0.176,5.183l-10.087,11.395
		c-1.367,1.544-1.91,3.652-1.458,5.665l4.178,18.631h27.511l-2.339-106.922l-20.334,10.672l-11.173,32.396
		C170.908,253.216,171.365,255.661,172.805,257.529z"/>
</g>
<path style="fill:#F7CF9C;" d="M169.974,97.195v42.926c0,21.669,12.209,41.612,31.693,51.096
	c46.834,22.798,93.015-10.699,93.015-54.996c0-1.047,0-52.004,0-50.228c0-3.733-4.278-5.814-7.238-3.54
	c-5.407,4.154-14.029,9.21-26.476,12.235c-4.164,1.012-7.576-1.669-7.576-5.954v-7.867c0-1.943-2.126-3.133-3.781-2.114
	c-11.841,7.287-43.576,23.874-75.55,15.295C171.998,93.494,169.974,95.058,169.974,97.195z"/>
<path style="fill:#EAB883;" d="M232.516,191.217c-19.483-9.484-31.693-29.427-31.693-51.096V96.05
	c-8.601,0.838-17.671,0.437-26.762-2.003c-2.064-0.554-4.087,1.011-4.087,3.147v42.926c0,21.669,12.209,41.612,31.693,51.096
	c15.993,7.785,31.909,9.002,45.937,5.469C242.62,195.48,237.572,193.678,232.516,191.217z"/>
<path style="fill:#DDDDDD;" d="M231.499,262.734c-4.259,0-7.712,3.453-7.712,7.712v44.362h15.425v-44.362
	C239.212,266.186,235.758,262.734,231.499,262.734z"/>
<path style="fill:#EFEFEF;" d="M101.871,279.66c-4.259,0-7.712-3.453-7.712-7.712v-50.034c0-7.379,3.571-14.363,9.553-18.682
	l13.089-9.451c3.453-2.492,8.274-1.713,10.767,1.738c2.494,3.454,1.715,8.275-1.738,10.768l-13.088,9.45
	c-1.977,1.427-3.158,3.737-3.158,6.176v50.034C109.583,276.207,106.13,279.66,101.871,279.66z"/>
<path style="fill:#666666;" d="M121.314,200.034c-4.921-6.816-3.385-16.33,3.431-21.251l8.635-6.234
	c6.813-4.919,16.33-3.387,21.251,3.431c4.921,6.816,3.385,16.33-3.431,21.251l-8.635,6.234
	C135.747,208.388,126.234,206.848,121.314,200.034z"/>
<path style="fill:#535454;" d="M136.114,170.979c-2.443,1.087-3.117,1.959-11.369,7.805c-6.815,4.92-8.351,14.435-3.431,21.25
	c4.915,6.807,14.427,8.358,21.251,3.431c8.529-6.218,8.701-6.149,10.113-7.467C137.899,200.424,126.184,182.951,136.114,170.979z"/>
<path style="fill:#CCCCCC;" d="M121.581,314.809V291.66c0-10.886-8.825-19.711-19.711-19.711s-19.711,8.825-19.711,19.711v23.149
	H121.581z"/>
<path style="fill:#BCBBBB;" d="M111.927,274.729c-13.039-7.764-29.768,1.597-29.768,16.93v23.149h20.114v-23.149
	C102.273,284.451,106.154,278.166,111.927,274.729z"/>
<path style="fill:#F7CF9C;" d="M106.808,369.522l13.79,128.42c0.88,8.001,7.64,14.058,15.689,14.058h189.687
	c7.576,0,13.918-5.745,14.664-13.284l7.994-83.818l3.573-45.376C331.584,369.522,113.653,369.522,106.808,369.522z"/>
<path style="fill:#EAB883;" d="M151.717,497.943l-13.79-128.42h-31.119l13.79,128.42c0.88,8.001,7.64,14.057,15.689,14.057h31.119
	C159.357,512,152.597,505.943,151.717,497.943z"/>
<path style="fill:#93482B;" d="M289.464,350.177c-4.363-4.252-4.364-11.252,0-15.504c3.646-5.06,13.785-8.608,12.366-22.949H75.143
	c-4.506,0-7.91,4.085-7.097,8.517L76,363.615c0.955,5.209,5.496,8.993,10.792,8.993h215.105
	C303.051,358.859,293.163,355.207,289.464,350.177z"/>
<path style="fill:#873921;" d="M130.253,363.615l-7.954-43.375c-0.813-4.432,2.591-8.517,7.097-8.517H75.143
	c-4.506,0-7.91,4.084-7.097,8.517L76,363.615c0.955,5.209,5.495,8.993,10.792,8.993h54.253
	C135.749,372.607,131.209,368.824,130.253,363.615z"/>
<g>
	<path style="fill:#F9DEC0;" d="M281.836,434.046H178.044c-4.259,0-7.712-3.453-7.712-7.712c0-4.26,3.453-7.712,7.712-7.712h103.793
		c4.259,0,7.712,3.453,7.712,7.712C289.549,430.593,286.096,434.046,281.836,434.046z"/>
	<path style="fill:#F9DEC0;" d="M281.836,469.492H178.044c-4.259,0-7.712-3.453-7.712-7.712c0-4.26,3.453-7.712,7.712-7.712h103.793
		c4.259,0,7.712,3.453,7.712,7.712S286.096,469.492,281.836,469.492z"/>
</g>
<path style="fill:#92B620;" d="M440.802,334.672l-6.794-6.623c-9.842-9.591-4.061-21.291-3.931-26.124
	c1.028-5.994-3.072-11.666-9.113-12.543c-4.609-1.36-17.664,0.436-23.714-11.824l-4.207-8.524
	c-2.696-5.464-9.353-7.627-14.746-4.791c-4.528,1.608-14.009,10.722-26.109,4.36l-8.295-4.36
	c-5.319-2.795-12.017-0.739-14.746,4.791c-2.748,4.014-5.073,17.027-18.62,18.996l-9.3,1.352
	c-6.031,0.876-10.144,6.539-9.114,12.544c0.127,4.761,5.854,16.587-3.931,26.124l-6.794,6.623c-4.364,4.252-4.363,11.253,0,15.504
	l6.794,6.622c9.841,9.593,4.061,21.291,3.931,26.125c-1.03,6.006,3.084,11.668,9.114,12.544c4.601,1.357,17.663-0.435,23.713,11.824
	l4.207,8.524c1.922,3.894,5.803,6.041,9.723,6.041c4.184,0,6.112-2.122,13.317-5.61c12.18-6.405,21.446,2.704,26.109,4.36
	c5.384,2.83,12.044,0.683,14.746-4.791l4.207-8.524c6.084-12.33,19.009-10.436,23.714-11.824c6.03-0.876,10.144-6.538,9.113-12.544
	l-1.574-9.181c-2.326-13.564,9.268-19.63,12.3-23.567C445.165,345.924,445.165,338.924,440.802,334.672z"/>
<path style="fill:#EFEFEF;" d="M346.229,371.15l-15.713-19.52c-2.671-3.318-2.147-8.173,1.172-10.845
	c3.318-2.67,8.174-2.146,10.844,1.172l9.935,12.343l27.681-31.807c2.797-3.214,7.668-3.55,10.881-0.754s3.551,7.667,0.755,10.881
	l-33.73,38.757C354.907,374.993,349.244,374.896,346.229,371.15z"/>
<path style="fill:#83A00B;" d="M317.541,374.428c-21.93-37.984-8.953-86.711,29.308-108.632l-2.956-1.554
	c-5.319-2.795-12.017-0.739-14.746,4.791c-2.748,4.014-5.073,17.027-18.62,18.996l-9.3,1.352
	c-6.031,0.876-10.144,6.539-9.114,12.544c0.128,4.761,5.854,16.587-3.931,26.124l-6.794,6.623c-4.364,4.252-4.363,11.253,0,15.504
	l6.794,6.622c9.841,9.593,4.061,21.291,3.931,26.125c-1.03,6.006,3.084,11.668,9.114,12.544c4.601,1.357,17.663-0.436,23.713,11.824
	l4.207,8.524c1.922,3.894,5.803,6.041,9.723,6.041c4.184,0,6.112-2.122,13.317-5.61c12.18-6.405,21.446,2.704,26.109,4.36
	c5.384,2.83,12.044,0.683,14.746-4.791l1.013-2.052C364.01,416.68,333.618,402.275,317.541,374.428z"/>
<g>
</g>
<g>
</g>
<g>
</g>
<g>
</g>
<g>
</g>
<g>
</g>
<g>
</g>
<g>
</g>
<g>
</g>
<g>
</g>
<g>
</g>
<g>
</g>
<g>
</g>
<g>
</g>
<g>
</g>
</svg>
