<?xml version="1.0" encoding="iso-8859-1"?>
<!-- Generator: Adobe Illustrator 19.0.0, SVG Export Plug-In . SVG Version: 6.00 Build 0)  -->
<svg version="1.1" id="Capa_1" xmlns="http://www.w3.org/2000/svg" xmlns:xlink="http://www.w3.org/1999/xlink" x="0px" y="0px"
	 viewBox="0 0 511.99 511.99" style="enable-background:new 0 0 511.99 511.99;" xml:space="preserve">
<path style="fill:#EFEFEF;" d="M497.728,448.351c8.442,0,14.874-7.563,13.519-15.895l-13.418-82.521
	c-1.7-8.602-2.671-22.907-19.147-29.833c-1.538-0.645-5.04-1.611-4.969-1.59c-72.261-25.526-5.759-2.035-37.719-13.287
	l-16.008-9.911v-18.799c-17.176,8.647-38.256,9.311-55.807,1.202l0.011,17.597l-16.46,10.084l-8.481,2.916h-0.019l0.003,0.006
	c-0.109,0.038-34.8,12.32-32.563,11.315c-5.892,2.2-11.026,6.005-14.505,11.39c-3.566,5.519-1.152-0.174-19.799,102.623
	c-1.39,7.662,4.498,14.705,12.285,14.705h213.077V448.351z"/>
<path style="fill:#DDDDDD;" d="M303.272,433.646c18.378-114.158,16.093-108.219,19.799-113.955c2.467-3.819,5.777-6.826,9.589-9.047
	c-26.426,9.338-26.126,9.05-25.991,8.989c-5.892,2.2-11.026,6.005-14.505,11.39c-3.566,5.519-1.152-0.174-19.799,102.623
	c-1.39,7.662,4.498,14.705,12.285,14.705h30.907C307.77,448.351,301.882,441.308,303.272,433.646z"/>
<path style="fill:#EAB883;" d="M391.128,321.55l33.148-23.581l-4.291-2.657v-18.799c-17.176,8.647-38.256,9.311-55.807,1.202
	l0.011,17.597l-5.112,3.132L391.128,321.55z"/>
<path style="fill:#E0A773;" d="M391.128,321.55v-38.156c-9.248,0.071-18.507-1.779-26.949-5.679l0.011,17.597l-5.112,3.132
	L391.128,321.55z"/>
<path style="fill:#93482B;" d="M475.59,178.867c-1.029-20.309-7.995-36.955-18.548-49.713c-0.054,0.009-0.109,0.015-0.163,0.023
	c-16.438-20.615-41.001-30.415-65.544-30.273c-0.068,0.111-0.14,0.218-0.208,0.329c-0.068-0.11-0.141-0.218-0.208-0.329
	c-24.543-0.142-49.106,9.659-65.544,30.273c-0.054-0.009-0.109-0.015-0.162-0.023c-21.668,26.196-18.686,52.839-18.672,83.979
	c18.508,0,149.692,0,169.173,0C475.715,190.619,475.738,181.821,475.59,178.867z"/>
<path style="fill:#873921;" d="M379.268,129.154c0.054,0.009,0.109,0.015,0.162,0.023c10.36-12.993,23.949-21.685,38.725-26.305
	c-8.668-2.71-17.744-4.021-26.819-3.969c-0.068,0.111-0.14,0.218-0.208,0.329c-0.068-0.11-0.141-0.218-0.208-0.329
	c-24.543-0.142-49.106,9.659-65.544,30.273c-0.054-0.009-0.109-0.015-0.162-0.023c-21.566,26.072-18.683,52.357-18.672,83.979
	c6.775,0,47.319,0,54.055,0C360.584,181.286,357.581,155.372,379.268,129.154z"/>
<g>
	<path style="fill:#EAB883;" d="M331.473,199.887c-15.524-5.532-32.377,4.756-32.377,19.766c0,15.006,16.851,25.3,32.377,19.767
		L331.473,199.887L331.473,199.887z"/>
	<path style="fill:#EAB883;" d="M451.021,200.015c15.424-5.497,32.168,4.726,32.168,19.639c0,14.909-16.742,25.136-32.168,19.639
		V200.015z"/>
</g>
<g>
	<path style="fill:#E0A773;" d="M301.373,210.51c-9.138,17.232,10.002,36.071,30.099,28.91v-18.285
		C319.379,225.444,306.486,220.152,301.373,210.51z"/>
	<path style="fill:#E0A773;" d="M451.022,221.007v18.285c19.855,7.075,39.095-11.528,29.872-28.782
		C475.792,220.051,463.011,225.28,451.022,221.007z"/>
</g>
<g>
	<path style="fill:#DDDDDD;" d="M332.993,382.804c0-4.268-3.459-7.727-7.727-7.727s-7.727,3.459-7.727,7.727v65.547h15.453
		L332.993,382.804L332.993,382.804z"/>
	<path style="fill:#DDDDDD;" d="M464.741,382.804c0-4.268-3.459-7.727-7.727-7.727c-4.267,0-7.727,3.459-7.727,7.727v65.547h15.453
		L464.741,382.804L464.741,382.804z"/>
	<path style="fill:#DDDDDD;" d="M364.19,295.313l26.938,26.238l-24.045,16.734c-3.509,2.442-8.38,0.806-9.703-3.259l-9.65-29.629
		L364.19,295.313z"/>
	<path style="fill:#DDDDDD;" d="M419.985,295.313l-28.858,26.238l24.045,16.734c3.509,2.442,8.38,0.806,9.703-3.259l11.117-29.801
		L419.985,295.313z"/>
</g>
<path style="fill:#52A5D8;" d="M402.052,358.891c-7.641,0-14.207,0-21.848,0l-15.111,89.459c16.569,0,35.5,0,52.07,0
	L402.052,358.891z"/>
<path style="fill:#F7CF9C;" d="M449.792,178.839c1.567,0.151,2.772,1.451,2.772,3.024c0,51.714,0.034,44.153-0.087,46.558
	c-3.514,69.339-102.073,80.121-120.542,13.209c-1.018-3.7-1.682-7.155-2.017-11.449c-0.344-4.343-0.201-27.919-0.201-27.843
	c0-12.043,10.688-21.232,22.608-19.511c18.773,2.71,46.175,1.657,70.086-18.781c2.457-2.1,6.186-1.422,7.755,1.404
	C433.128,170.785,439.019,177.799,449.792,178.839z"/>
<path style="fill:#EAB883;" d="M360.686,228.421c-0.119-2.376-0.088,4.969-0.087-44.73c-2.901-0.189-5.673-0.488-8.274-0.864
	c-11.92-1.72-22.608,7.468-22.608,19.511c0-0.076-0.143,23.5,0.201,27.843c0.335,4.294,0.999,7.748,2.017,11.449
	c10.23,37.065,45.033,50.278,74.646,42.916C382.735,278.617,362.253,259.351,360.686,228.421z"/>
<path style="fill:#70B5E8;" d="M391.128,321.55l-20.331,14.149l9.417,23.193c7.634,0,14.193,0,21.827,0l9.417-23.193L391.128,321.55
	z"/>
<path style="fill:#4297CC;" d="M402.052,358.891c-7.641,0-14.207,0-21.848,0l-15.112,89.459h21.871l15.1-89.391L402.052,358.891z"/>
<path style="fill:#52A5D8;" d="M387.85,323.832l-17.052,11.867l9.417,23.193c7.634,0,14.193,0,21.827,0l0.022-0.054L387.85,323.832z
	"/>
<path style="fill:#EFEFEF;" d="M225.567,448.351c8.442,0,14.874-7.563,13.519-15.895l-13.418-82.521
	c-1.7-8.602-2.671-22.907-19.147-29.833c-1.538-0.645-5.04-1.611-4.969-1.59c-72.261-25.526-5.759-2.035-37.719-13.287
	l-16.008-9.911v-18.799c-17.176,8.647-38.256,9.311-55.807,1.202l0.011,17.597l-16.46,10.084l-8.481,2.916h-0.019l0.003,0.006
	c-0.109,0.038-34.8,12.32-32.563,11.315c-9.12,3.406-16.829,10.902-17.907,21.393c-0.453,4.41-10.047,57.613-16.397,92.619
	c-1.39,7.662,4.498,14.705,12.285,14.705L225.567,448.351L225.567,448.351z"/>
<path style="fill:#DDDDDD;" d="M31.111,433.646c0,0,15.944-99.542,16.397-103.952c0.863-8.389,5.829-14.877,12.991-19.05
	c-26.426,9.338-26.126,9.05-25.991,8.989c-9.12,3.406-16.829,10.902-17.907,21.393c-0.453,4.41-10.047,57.613-16.397,92.619
	c-1.39,7.662,4.498,14.705,12.285,14.705h30.907C35.609,448.351,29.721,441.308,31.111,433.646z"/>
<path style="fill:#EAB883;" d="M118.967,321.55l33.148-23.581l-4.291-2.657v-18.799c-17.176,8.647-38.256,9.311-55.807,1.202
	l0.011,17.597l-5.112,3.132L118.967,321.55z"/>
<path style="fill:#E0A773;" d="M118.967,321.55v-38.156c-9.248,0.071-18.507-1.779-26.949-5.679l0.011,17.597l-5.112,3.132
	L118.967,321.55z"/>
<path style="fill:#93482B;" d="M184.882,129.154c-0.054,0.009-0.109,0.015-0.163,0.023c-16.438-20.615-41.001-30.415-65.544-30.273
	c-0.068,0.111-0.14,0.218-0.208,0.329c-0.068-0.11-0.141-0.218-0.208-0.329c-24.543-0.142-49.106,9.659-65.544,30.273
	c-0.054-0.009-0.109-0.015-0.162-0.023c-21.555,26.06-18.686,52.424-18.672,83.979c56.393,0,112.72,0,169.173,0
	C203.553,182.048,206.713,155.548,184.882,129.154z"/>
<path style="fill:#873921;" d="M88.559,178.867c1.029-20.309,7.995-36.955,18.548-49.713c0.054,0.009,0.109,0.015,0.162,0.023
	c10.36-12.993,23.949-21.685,38.725-26.305c-8.668-2.71-17.744-4.021-26.819-3.969c-0.068,0.111-0.14,0.218-0.208,0.329
	c-0.068-0.11-0.141-0.218-0.208-0.329c-24.543-0.142-49.106,9.659-65.544,30.273c-0.054-0.009-0.109-0.015-0.162-0.023
	c-21.555,26.06-18.683,52.424-18.672,83.979c6.775,0,47.319,0,54.055,0C88.428,193.436,88.406,181.919,88.559,178.867z"/>
<circle style="fill:#70B5E8;" cx="446.97" cy="65.02" r="65.02"/>
<g>
	<path style="fill:#EAB883;" d="M59.311,199.887c-15.524-5.532-32.377,4.756-32.377,19.766c0,15.006,16.851,25.3,32.377,19.767
		V199.887z"/>
	<path style="fill:#EAB883;" d="M178.86,200.015c15.424-5.497,32.168,4.726,32.168,19.639c0,14.909-16.742,25.136-32.168,19.639
		V200.015z"/>
</g>
<g>
	<path style="fill:#E0A773;" d="M29.212,210.51c-9.138,17.232,10.002,36.071,30.099,28.91v-18.285
		C47.218,225.444,34.324,220.152,29.212,210.51z"/>
	<path style="fill:#E0A773;" d="M178.86,221.007v18.285c19.855,7.075,39.095-11.528,29.872-28.782
		C203.631,220.051,190.85,225.28,178.86,221.007z"/>
</g>
<g>
	<path style="fill:#DDDDDD;" d="M60.832,382.804c0-4.268-3.459-7.727-7.727-7.727s-7.727,3.459-7.727,7.727v65.547h15.453v-65.547
		H60.832z"/>
	<path style="fill:#DDDDDD;" d="M192.58,382.804c0-4.268-3.459-7.727-7.727-7.727c-4.267,0-7.727,3.459-7.727,7.727v65.547h15.453
		v-65.547H192.58z"/>
	<path style="fill:#DDDDDD;" d="M92.028,295.313l26.938,26.238l-24.045,16.734c-3.509,2.442-8.38,0.806-9.703-3.259l-9.65-29.629
		L92.028,295.313z"/>
	<path style="fill:#DDDDDD;" d="M147.824,295.313l-28.858,26.238l24.045,16.734c3.509,2.442,8.38,0.806,9.703-3.259l11.117-29.801
		L147.824,295.313z"/>
</g>
<path style="fill:#EF3C3C;" d="M129.891,358.891c-7.641,0-14.207,0-21.848,0L92.932,448.35c16.569,0,35.5,0,52.07,0L129.891,358.891
	z"/>
<g>
	<path style="fill:#EFEFEF;" d="M224.029,511.99H15.238C6.822,511.99,0,505.168,0,496.753l0,0c0-8.415,6.822-15.238,15.238-15.238
		H224.03c8.415,0,15.238,6.822,15.238,15.238l0,0C239.267,505.168,232.445,511.99,224.029,511.99z"/>
	<path style="fill:#EFEFEF;" d="M496.752,511.99H287.96c-8.415,0-15.238-6.822-15.238-15.238l0,0
		c0-8.415,6.822-15.238,15.238-15.238h208.792c8.415,0,15.238,6.822,15.238,15.238l0,0
		C511.989,505.168,505.167,511.99,496.752,511.99z"/>
</g>
<path style="fill:#F94A46;" d="M53.105,481.515H15.238C6.822,481.515,0,488.337,0,496.753c0,8.415,6.821,15.237,15.236,15.237
	h37.869V481.515z"/>
<path style="fill:#EF3C3C;" d="M30.907,496.752c0-8.416,6.822-15.237,15.238-15.237H15.238C6.822,481.515,0,488.337,0,496.752
	s6.821,15.237,15.236,15.238h30.907C37.728,511.989,30.907,505.168,30.907,496.752z"/>
<path style="fill:#F7CF9C;" d="M177.631,178.839c1.567,0.151,2.771,1.451,2.771,3.024c0,51.714,0.034,44.153-0.087,46.558
	c-3.514,69.339-102.073,80.121-120.542,13.209c-1.018-3.7-1.682-7.155-2.017-11.449c-0.344-4.343-0.201-27.919-0.201-27.843
	c0-12.043,10.688-21.232,22.608-19.511c18.773,2.71,46.175,1.657,70.086-18.781c2.457-2.1,6.186-1.422,7.755,1.404
	C160.967,170.785,166.858,177.799,177.631,178.839z"/>
<path style="fill:#EAB883;" d="M88.525,228.421c-0.119-2.376-0.088,4.969-0.087-44.73c-2.901-0.189-5.673-0.488-8.274-0.864
	c-11.92-1.72-22.608,7.468-22.608,19.511c0-0.076-0.143,23.5,0.201,27.843c3.004,38.565,38.224,63.921,76.663,54.364
	C110.574,278.617,90.092,259.351,88.525,228.421z"/>
<circle style="fill:#F94A46;" cx="174.25" cy="65.02" r="65.02"/>
<path style="fill:#EF3C3C;" d="M143.323,82.873c-15.433-26.731-9.711-59.853,11.948-80.034
	c-40.067,12.268-58.207,58.519-37.326,94.686c20.861,36.133,69.982,43.606,100.664,15.018
	C190.302,121.21,158.756,109.604,143.323,82.873z"/>
<path style="fill:#52A5D8;" d="M416.046,82.873c-15.433-26.731-9.711-59.853,11.948-80.034
	c-40.067,12.268-58.207,58.519-37.326,94.686c20.861,36.133,69.982,43.606,100.664,15.018
	C463.024,121.21,431.479,109.604,416.046,82.873z"/>
<g>
	<circle style="fill:#EFEFEF;" cx="151.13" cy="44.491" r="11.222"/>
	<circle style="fill:#EFEFEF;" cx="197.37" cy="85.54" r="11.222"/>
	<path style="fill:#EFEFEF;" d="M152.144,95.712c-3.449-2.512-4.209-7.345-1.697-10.795l35.115-48.209
		c2.513-3.447,7.345-4.208,10.795-1.696c3.449,2.512,4.209,7.345,1.697,10.795l-35.115,48.209
		C160.438,97.448,155.61,98.237,152.144,95.712z"/>
</g>
<path style="fill:#F94A46;" d="M118.967,321.55l-20.331,14.149l9.417,23.193c7.634,0,14.193,0,21.827,0l9.417-23.193L118.967,321.55
	z"/>
<path style="fill:#DD2F2F;" d="M129.891,358.891c-7.641,0-14.207,0-21.848,0L92.931,448.35h21.871l15.1-89.391L129.891,358.891z"/>
<path style="fill:#EF3C3C;" d="M115.689,323.832l-17.052,11.867l9.417,23.193c7.634,0,14.193,0,21.827,0l0.022-0.054
	L115.689,323.832z"/>
<g>
	<circle style="fill:#EFEFEF;" cx="423.85" cy="44.491" r="11.222"/>
	<circle style="fill:#EFEFEF;" cx="470.1" cy="85.54" r="11.222"/>
	<path style="fill:#EFEFEF;" d="M424.867,95.712c-3.449-2.512-4.209-7.345-1.697-10.795l35.114-48.209
		c2.513-3.447,7.345-4.208,10.795-1.696c3.449,2.512,4.209,7.345,1.697,10.795l-35.114,48.209
		C433.16,97.448,428.333,98.237,424.867,95.712z"/>
</g>
<path style="fill:#70B5E8;" d="M412.02,481.515H287.96c-8.415,0-15.238,6.822-15.238,15.238c0,8.415,6.822,15.237,15.237,15.237
	H412.02V481.515z"/>
<path style="fill:#52A5D8;" d="M303.629,496.752c0-8.416,6.822-15.237,15.238-15.237H287.96c-8.415,0-15.238,6.822-15.238,15.237
	s6.821,15.237,15.236,15.238h30.907C310.45,511.989,303.629,505.168,303.629,496.752z"/>
<g>
</g>
<g>
</g>
<g>
</g>
<g>
</g>
<g>
</g>
<g>
</g>
<g>
</g>
<g>
</g>
<g>
</g>
<g>
</g>
<g>
</g>
<g>
</g>
<g>
</g>
<g>
</g>
<g>
</g>
</svg>
