<?xml version="1.0" standalone="no"?>
<!DOCTYPE svg PUBLIC "-//W3C//DTD SVG 20010904//EN"
 "http://www.w3.org/TR/2001/REC-SVG-20010904/DTD/svg10.dtd">
<svg version="1.0" xmlns="http://www.w3.org/2000/svg"
 width="871.000000pt" height="1280.000000pt" viewBox="0 0 871.000000 1280.000000"
 preserveAspectRatio="xMidYMid meet">
<g transform="translate(0.000000,1280.000000) scale(0.100000,-0.100000)"
fill="#000000" stroke="none">
<path d="M8603 12738 c-39 -35 -123 -94 -188 -133 -86 -51 -146 -97 -226 -172
-60 -57 -111 -103 -114 -103 -14 0 23 48 90 119 52 54 100 92 161 127 47 27
98 59 113 71 l26 22 -27 1 c-46 0 -350 -112 -514 -191 -117 -55 -150 -95 -276
-327 -22 -41 -42 -72 -44 -69 -3 3 20 63 49 133 72 169 73 174 49 174 -10 0
-41 -17 -68 -37 -27 -21 -105 -75 -174 -120 -231 -152 -227 -147 -289 -309
-31 -80 -87 -171 -98 -160 -3 3 13 36 35 73 61 101 87 183 59 183 -26 0 -337
-221 -389 -276 -34 -37 -61 -106 -87 -227 -37 -169 -77 -280 -133 -364 -29
-42 -53 -72 -56 -65 -2 6 8 28 22 49 39 60 92 208 115 323 11 58 32 138 46
179 14 41 25 76 25 78 0 13 -30 -8 -116 -83 -86 -75 -196 -144 -230 -144 -6 0
-21 -12 -35 -26 -13 -14 -47 -40 -76 -56 -59 -33 -103 -79 -134 -140 -23 -45
-61 -214 -79 -348 -11 -88 -111 -394 -156 -480 -23 -45 -63 -101 -64 -89 0 3
18 44 39 90 68 146 137 386 156 540 26 210 33 207 -136 44 -81 -77 -189 -180
-241 -230 -80 -76 -100 -102 -132 -169 -40 -85 -52 -94 -37 -27 7 34 6 41 -4
39 -21 -5 -273 -255 -303 -301 -25 -37 -27 -51 -32 -164 -5 -119 -6 -123 -24
-110 -18 13 -18 20 -7 122 6 60 9 110 7 112 -9 9 -47 -19 -69 -51 -12 -19
-115 -135 -229 -258 -114 -123 -220 -241 -237 -262 -39 -49 -111 -182 -146
-269 -26 -66 -26 -69 -11 -108 9 -22 16 -45 16 -52 0 -6 -32 -27 -71 -45 -52
-24 -76 -42 -91 -68 -11 -19 -29 -39 -39 -44 -10 -6 -16 -17 -13 -24 4 -10
-10 -19 -46 -31 -97 -32 -218 -155 -350 -357 -92 -139 -96 -194 -29 -405 24
-73 28 -97 19 -113 -6 -11 -15 -18 -20 -15 -4 3 -23 44 -41 93 -28 75 -33 102
-35 192 -1 58 -6 105 -11 104 -10 -1 -167 -235 -270 -402 -75 -122 -122 -232
-123 -285 0 -20 -16 -43 -65 -91 -52 -51 -74 -82 -106 -152 -22 -49 -52 -115
-67 -148 -19 -42 -39 -67 -70 -88 -153 -106 -324 -332 -353 -467 -6 -30 -33
-91 -59 -135 -26 -45 -66 -113 -89 -151 -54 -93 -73 -188 -69 -349 3 -114 2
-119 -20 -133 -20 -14 -22 -14 -22 5 0 12 5 43 11 71 5 27 9 69 7 93 l-3 43
-33 -54 c-18 -29 -42 -76 -53 -103 -11 -27 -41 -94 -68 -147 -78 -155 -87
-194 -72 -293 8 -46 26 -123 42 -173 15 -49 26 -91 24 -93 -2 -2 -21 23 -43
56 -26 40 -43 82 -51 124 -22 111 -24 112 -63 33 -39 -78 -88 -238 -88 -289 0
-18 7 -54 16 -80 20 -59 12 -70 -17 -22 -11 20 -23 36 -25 36 -11 0 -34 -64
-34 -97 0 -22 -18 -79 -41 -133 -81 -188 -81 -214 2 -377 27 -53 47 -98 45
-101 -10 -9 -29 13 -72 90 -64 110 -89 138 -125 138 -28 0 -41 -22 -20 -35 5
-3 20 -31 32 -63 19 -48 24 -84 29 -237 6 -166 9 -188 39 -276 53 -162 88
-237 164 -353 75 -113 93 -146 78 -146 -4 0 -16 10 -27 21 -10 12 -41 36 -69
54 -27 18 -71 54 -97 80 -40 41 -48 46 -54 31 -13 -34 28 -96 102 -157 85 -70
124 -113 124 -140 0 -11 5 -29 10 -40 15 -27 7 -24 -70 26 -53 34 -75 55 -94
92 -19 38 -26 44 -31 30 -4 -9 -4 -37 -1 -62 7 -44 26 -66 101 -119 15 -10 33
-33 41 -52 12 -30 11 -41 -16 -133 -17 -56 -37 -119 -46 -141 l-16 -40 -162 0
c-284 -1 -476 -43 -511 -111 -27 -51 -15 -83 41 -112 26 -13 30 -20 26 -45 -6
-40 13 -71 54 -88 22 -9 36 -23 40 -40 11 -45 -4 -345 -21 -424 -52 -235 -135
-378 -332 -572 -117 -117 -192 -177 -378 -306 -287 -199 -409 -314 -537 -507
-32 -49 -73 -118 -89 -153 -97 -201 -71 -460 65 -661 64 -93 145 -161 240
-197 l71 -28 355 -3 c195 -2 825 0 1400 4 1201 10 1081 -2 1204 113 142 133
215 329 203 545 -6 115 -29 194 -88 304 -94 176 -211 285 -689 646 -251 190
-436 394 -516 570 -59 129 -94 344 -94 583 l0 137 38 20 c35 19 37 23 34 63
-1 24 2 42 8 42 17 0 50 39 50 59 0 34 -47 77 -110 101 -33 12 -60 23 -60 24
0 7 94 301 112 351 27 76 34 85 69 85 29 0 49 -15 160 -115 62 -57 109 -75
192 -75 60 0 103 14 111 37 5 11 1 13 -15 8 -12 -4 -47 -7 -78 -8 -66 0 -124
26 -187 83 -23 21 -56 46 -73 55 -18 9 -30 22 -28 28 7 22 39 19 91 -6 28 -14
85 -31 126 -37 65 -11 94 -9 213 8 98 15 145 26 159 39 19 17 97 124 142 195
19 30 19 31 1 44 -10 8 -25 14 -32 14 -20 0 -16 15 14 51 36 42 79 59 152 59
123 0 248 44 298 105 16 18 44 73 62 122 38 97 79 180 112 230 20 31 20 33 2
33 -10 0 -58 -30 -107 -67 -128 -98 -132 -101 -121 -83 28 47 166 185 215 215
79 48 159 137 189 210 14 33 39 85 57 115 17 30 45 101 63 157 37 120 81 222
105 242 14 12 27 12 79 2 61 -12 64 -11 129 19 73 34 122 82 228 219 71 93
126 152 163 175 15 10 27 22 27 27 0 12 -81 -21 -163 -66 -37 -20 -72 -35 -78
-33 -6 2 46 35 117 73 100 55 135 80 165 117 20 26 39 53 41 59 3 9 32 1 94
-23 160 -65 207 -71 311 -39 76 23 109 46 151 105 37 51 30 58 -26 22 -85 -56
-230 -60 -341 -10 -34 15 -61 30 -61 35 0 4 42 5 93 2 190 -11 331 36 453 150
l62 57 153 0 c361 1 557 42 727 154 90 60 133 102 186 183 25 38 66 87 91 107
76 63 221 243 265 331 85 168 94 401 21 543 -26 50 -88 114 -145 147 -51 30
-144 43 -210 31 -61 -12 -44 -33 32 -40 132 -13 234 -86 289 -205 55 -116 36
-298 -47 -468 -41 -83 -65 -118 -135 -190 -46 -48 -86 -85 -89 -82 -3 2 -12
51 -20 107 -18 121 -50 193 -118 267 -87 96 -214 139 -289 99 l-34 -18 80 -8
c174 -18 257 -103 280 -288 7 -60 -12 -167 -41 -221 -27 -52 -227 -134 -399
-163 -118 -20 -306 -36 -427 -36 l-98 0 -6 28 c-11 52 -15 62 -25 62 -5 0 -9
4 -9 9 0 5 23 17 52 27 36 12 68 33 104 69 45 44 53 58 59 103 5 35 16 63 37
89 42 52 79 134 81 181 3 76 -45 137 -59 75 -28 -124 -51 -169 -123 -236 -80
-75 -238 -105 -335 -63 l-39 16 25 28 c31 32 102 176 96 194 -3 8 -26 13 -64
13 -92 1 -123 20 -327 197 -32 28 -56 52 -53 55 2 2 53 -22 113 -55 229 -125
366 -172 499 -172 67 0 89 4 130 25 58 30 117 92 150 157 31 61 31 99 -1 135
l-24 28 -1 -46 c0 -75 -27 -146 -71 -190 -35 -35 -44 -39 -87 -39 -68 0 -158
47 -217 112 -25 28 -45 58 -43 66 2 8 21 21 43 29 22 7 52 25 66 39 31 30 169
302 169 334 0 20 -1 20 -37 -4 -109 -71 -237 -51 -389 61 -36 26 -61 49 -56
51 5 1 51 -12 103 -29 132 -44 273 -51 339 -17 27 14 56 40 73 66 22 33 34 42
56 42 16 0 62 15 103 34 57 26 83 44 107 78 30 39 32 48 29 100 -5 66 -9 73
-35 60 -12 -7 -23 -31 -31 -69 -17 -84 -54 -118 -125 -117 -61 1 -117 27 -165
77 l-33 34 73 5 c40 3 88 12 106 22 39 20 91 89 132 174 22 45 35 62 45 58 8
-3 54 -13 102 -22 119 -22 300 -15 398 16 130 41 240 111 297 190 45 60 138
232 138 252 0 33 -18 18 -73 -60 -65 -92 -108 -132 -185 -171 -125 -63 -247
-81 -394 -57 -99 16 -234 55 -278 81 l-25 14 31 1 c17 0 49 12 70 27 37 25 45
26 184 29 249 4 470 68 527 153 22 32 32 101 15 101 -15 0 -32 -24 -32 -46 0
-37 -55 -82 -127 -104 -82 -25 -208 -27 -356 -3 -122 19 -116 9 -67 118 l28
62 56 7 c115 13 233 64 303 131 46 45 53 67 15 46 -15 -8 -21 -8 -25 2 -2 7
-24 -7 -56 -36 -68 -61 -128 -79 -247 -75 l-89 3 50 23 c28 13 69 41 92 64
l41 41 149 13 c206 18 282 44 391 132 62 51 69 68 40 99 -12 14 -43 39 -67 56
l-44 30 79 26 c44 14 95 35 114 46 73 44 130 154 130 253 0 36 -3 43 -17 40
-13 -2 -20 -17 -24 -49 -16 -110 -85 -200 -167 -218 -91 -19 -196 15 -279 92
-54 50 -145 166 -138 177 3 4 24 4 47 -2 62 -14 95 -13 124 3 15 7 65 65 113
127 98 129 129 178 118 188 -3 4 -43 -12 -88 -34 -74 -39 -87 -42 -159 -42
-90 0 -128 11 -261 75 -105 50 -103 51 86 19 96 -15 124 -16 225 -6 195 19
249 48 311 166 17 33 47 82 65 107 53 73 45 81 -38 40 -70 -35 -74 -36 -192
-36 -102 0 -130 4 -176 23 -30 12 -62 26 -70 32 -28 17 0 23 47 9 74 -21 316
-19 371 4 23 9 55 17 70 17 15 0 45 10 67 22 22 11 66 29 98 39 71 21 115 54
166 122 49 66 67 116 48 134 -11 12 -20 5 -53 -39 -51 -69 -103 -98 -174 -98
-112 0 -240 44 -376 128 -167 103 -293 151 -404 153 -46 0 -51 2 -31 10 54 22
200 -15 459 -115 125 -48 198 -66 269 -66 97 0 144 22 219 103 36 39 74 88 85
109 12 24 40 51 75 73 70 45 110 88 130 142 23 60 12 76 -18 27 -47 -73 -106
-112 -204 -134 -36 -8 -49 -8 -55 2 -6 9 -13 8 -28 -6 -17 -16 -31 -18 -84
-13 -34 3 -76 11 -92 17 l-30 12 48 19 c69 27 95 46 158 110 31 32 67 60 80
63 13 2 58 9 99 15 41 6 99 23 127 37 61 29 132 107 162 177 17 39 29 51 63
66 48 21 235 206 263 261 20 38 23 38 -80 -1 -51 -19 -80 -23 -195 -23 -82 -1
-163 5 -205 14 l-70 14 220 12 c242 13 294 24 372 77 45 31 113 108 113 127 0
5 -16 4 -36 -1 -19 -6 -45 -9 -57 -7 -19 3 -16 7 19 25 58 31 104 72 104 92 0
30 -11 31 -44 6 -57 -44 -112 -58 -231 -59 -100 -1 -156 7 -143 20 3 2 56 9
118 14 203 18 308 55 378 135 40 46 86 125 77 133 -3 3 -31 -9 -64 -27 -54
-29 -66 -31 -154 -31 -53 0 -99 4 -102 10 -4 6 16 10 53 10 97 0 169 19 204
54 42 42 57 83 69 184 5 48 12 97 15 109 11 42 -30 26 -103 -39z m-2277 -1369
c-8 -19 -31 -108 -51 -199 -49 -218 -61 -229 -29 -26 19 123 38 190 65 235 25
41 34 36 15 -10z m413 -56 c-18 -37 -34 -62 -37 -55 -2 7 11 42 30 77 43 84
49 66 7 -22z m716 17 c21 -7 -8 -9 -102 -7 -97 1 -135 6 -145 16 -11 11 5 12
102 7 64 -4 129 -11 145 -16z m-285 -60 c41 -12 95 -20 145 -20 73 -1 78 -2
61 -15 -28 -21 -116 -19 -189 6 -125 42 -139 66 -17 29z m-1011 -200 c-26
-157 -64 -308 -75 -297 -2 2 0 26 6 53 6 27 22 118 35 202 22 136 48 233 59
221 2 -2 -9 -83 -25 -179z m-440 -320 c-16 -44 -45 -135 -65 -203 -19 -67 -40
-126 -45 -132 -12 -11 -8 12 23 125 39 148 70 244 85 267 30 46 31 22 2 -57z
m-135 -124 c-9 -34 -30 -99 -44 -146 -15 -47 -35 -118 -45 -157 -20 -76 -41
-101 -30 -35 34 196 122 473 134 416 2 -10 -5 -45 -15 -78z m562 -576 c149
-51 253 -97 302 -132 28 -21 52 -43 52 -49 0 -11 0 -11 -77 38 -75 48 -270
120 -371 138 -48 8 -91 15 -95 15 -5 0 -5 5 -1 11 9 16 117 4 190 -21z m-1012
-66 c11 -29 6 -69 -11 -94 l-17 -24 -6 29 c-14 68 14 141 34 89z m-4 -188 c0
-61 -117 -376 -140 -376 -6 0 -4 14 6 38 32 71 73 199 84 263 15 80 27 112 40
104 6 -3 10 -16 10 -29z m1210 -277 c63 -21 141 -46 174 -56 96 -30 70 -56
-33 -33 -90 19 -169 49 -281 105 -142 72 -165 93 -60 54 47 -17 137 -49 200
-70z m-627 -158 c62 -21 134 -50 161 -65 61 -32 329 -121 419 -138 71 -13 81
-27 29 -42 -22 -6 -51 -4 -97 8 -64 16 -297 109 -455 181 -61 28 -89 35 -150
37 -72 2 -283 -16 -325 -28 -18 -5 -18 -4 -5 9 21 20 75 37 119 37 20 0 61 9
91 20 75 26 86 26 213 -19z m-665 17 c-3 -7 -36 -18 -74 -25 -88 -15 -101 -16
-88 -3 30 30 170 54 162 28z m1556 -3 c-31 -24 -82 -17 -57 8 3 4 22 7 42 7
33 0 34 -1 15 -15z m411 -87 c14 -14 -105 -28 -228 -28 -126 0 -223 14 -199
29 13 8 419 7 427 -1z m-1432 -172 c90 -23 207 -68 207 -79 0 -8 -73 2 -215
28 -215 39 -292 48 -396 43 -54 -3 -96 -1 -93 3 28 47 328 50 497 5z m-1099
-152 c0 -163 -21 -323 -44 -348 -12 -12 -11 298 1 404 12 103 17 122 32 117 9
-3 12 -52 11 -173z m-424 -101 c0 -27 -1 -57 -1 -68 -2 -103 2 -260 11 -405 7
-114 8 -189 2 -215 -8 -32 -11 -35 -13 -15 -3 32 -6 54 -9 60 -1 3 -3 61 -5
130 -1 69 -8 166 -14 215 -14 115 -14 230 0 295 13 63 30 65 29 3z m1645 -338
c94 -46 217 -102 274 -126 l104 -43 -27 -23 c-39 -34 -104 -31 -185 7 -74 35
-203 118 -311 199 -41 32 -90 66 -107 76 -18 11 -33 23 -33 27 0 14 110 -32
285 -117z m-689 71 c94 -25 174 -76 270 -171 88 -88 256 -317 216 -296 -31 17
-129 127 -182 206 -27 40 -71 91 -97 114 -92 78 -234 131 -355 131 -60 0 -88
16 -41 23 61 9 141 6 189 -7z m-196 -309 c66 -27 219 -125 220 -140 0 -5 -15
1 -32 13 -105 70 -293 139 -384 141 -32 0 -35 2 -19 10 35 16 146 4 215 -24z
m-951 -214 c6 -31 11 -88 10 -127 -1 -67 -2 -69 -11 -31 -5 22 -18 70 -30 106
-15 53 -17 71 -9 88 18 33 27 25 40 -36z m731 -342 c49 -11 102 -27 117 -36
l28 -16 -30 5 c-230 41 -412 46 -504 12 -84 -31 -80 -16 9 34 55 31 55 31 173
26 64 -3 157 -15 207 -25z m-1220 -123 c51 -167 118 -501 104 -517 -8 -9 -15
9 -53 140 -46 156 -66 244 -81 352 -12 95 -12 97 -1 97 5 0 19 -33 31 -72z
m940 -53 c0 -2 -33 -14 -72 -26 -40 -12 -99 -30 -130 -40 -65 -22 -68 -22 -68
-11 0 20 175 81 233 82 20 0 37 -2 37 -5z m-1325 -236 c-9 -30 -20 -63 -25
-74 -7 -18 -8 -19 -15 -2 -11 25 3 81 26 112 12 14 23 24 26 22 2 -3 -3 -29
-12 -58z m-306 -595 c12 -39 27 -77 35 -83 13 -11 10 -19 -16 -56 -17 -24 -35
-42 -39 -39 -22 13 -38 203 -22 264 6 22 7 23 14 5 4 -11 17 -52 28 -91z
m1891 31 c63 -9 153 -22 200 -29 141 -24 267 -28 340 -12 57 12 68 12 85 0
143 -103 239 -148 339 -160 57 -7 66 -16 66 -73 0 -24 -1 -24 -72 -17 -166 15
-314 53 -788 199 -151 47 -291 88 -310 92 -19 4 -42 11 -50 16 -16 10 1 9 190
-16z m1256 -2 c-19 -37 -52 -66 -106 -95 -85 -44 -306 -26 -351 28 -11 13 -6
14 42 7 131 -19 284 6 374 61 51 33 59 32 41 -1z m-3082 -189 c9 -3 16 -10 16
-15 0 -14 -26 -10 -40 6 -13 16 -3 20 24 9z m56 -234 c46 -137 110 -368 110
-394 0 -6 -6 -4 -14 4 -12 14 -40 101 -127 404 -26 88 -37 158 -25 145 3 -3
28 -74 56 -159z m1690 85 c80 -19 224 -53 320 -76 96 -22 179 -44 183 -48 21
-20 -180 -71 -279 -71 -52 0 -67 6 -189 75 -137 78 -274 135 -324 135 -16 0
-62 -16 -102 -35 -98 -47 -125 -51 -211 -29 -95 24 -242 24 -323 0 -32 -10
-90 -33 -128 -52 -78 -39 -85 -40 -66 -18 19 23 114 68 189 90 88 25 248 25
352 0 l77 -19 93 46 93 47 85 -5 c47 -3 150 -21 230 -40z m1875 19 c-31 -25
-103 -54 -185 -76 -110 -29 -555 -40 -527 -12 5 5 162 24 407 49 86 9 189 24
230 34 94 24 99 24 75 5z m-1100 -189 c206 -38 203 -36 104 -85 -88 -45 -171
-64 -249 -56 -119 11 -115 6 -67 97 29 54 47 77 57 74 8 -2 78 -16 155 -30z
m-2852 -248 c8 -88 28 -156 106 -350 32 -81 54 -146 48 -144 -6 2 -37 53 -69
113 -61 116 -116 266 -125 344 -5 48 12 124 26 115 5 -2 11 -37 14 -78z m1219
68 c47 -8 118 -26 159 -41 382 -136 387 -137 581 -138 87 -1 158 -4 158 -7 0
-14 -36 -19 -143 -19 -131 0 -185 11 -413 79 -296 89 -469 116 -587 91 -32 -6
-61 -9 -65 -6 -12 13 20 30 80 42 86 17 131 16 230 -1z m43 -405 c83 -16 219
-37 303 -47 83 -9 152 -21 152 -27 0 -12 -193 0 -290 18 -369 71 -585 70 -727
-2 -50 -26 -60 -27 -42 -6 16 20 106 61 174 79 90 25 261 19 430 -15z m-833
-316 c-86 -215 -153 -374 -207 -494 -25 -58 -63 -148 -82 -200 -20 -52 -73
-189 -119 -305 -93 -239 -177 -477 -227 -645 -107 -358 -132 -436 -140 -447
-13 -17 -36 -16 -43 2 -6 15 49 201 121 405 25 69 56 163 71 210 28 90 104
292 160 425 18 44 65 159 103 255 38 96 93 227 121 290 62 138 147 338 201
475 63 159 94 221 97 198 2 -12 -24 -88 -56 -169z m1076 -19 c3 -3 -18 -5 -47
-5 -29 0 -82 -6 -119 -14 -98 -21 -692 -30 -692 -11 0 23 21 29 115 35 109 7
735 3 743 -5z m-1718 -118 c14 -32 29 -47 58 -60 55 -24 114 -100 132 -171 7
-26 7 -28 -3 -12 -74 117 -92 138 -137 161 -37 19 -51 33 -64 65 -28 71 -16
86 14 17z m1838 -99 c-3 -7 -40 -28 -83 -46 -58 -24 -90 -32 -120 -29 -31 3
-35 5 -20 11 11 4 56 22 100 40 86 36 129 44 123 24z m-2003 -135 l76 -106
-37 -38 c-27 -28 -41 -36 -50 -28 -23 19 -56 113 -65 183 -5 39 -12 79 -15 89
-11 36 14 8 91 -100z m139 -244 c21 -45 42 -107 47 -138 11 -69 12 -181 1
-181 -5 0 -39 63 -76 140 -59 119 -68 145 -63 176 6 38 31 84 46 84 4 0 25
-37 45 -81z m973 -198 c9 -4 5 -16 -13 -39 -43 -54 -106 -66 -309 -58 -93 4
-171 9 -174 11 -8 9 34 47 72 67 22 11 58 23 80 28 45 8 324 1 344 -9z m187
-7 c35 -5 44 -10 36 -19 -17 -21 -170 -82 -170 -68 0 3 8 17 18 31 10 15 22
35 25 45 7 19 20 20 91 11z m-439 -498 c208 -20 123 -31 -124 -17 -203 12
-296 7 -332 -14 -5 -4 -9 1 -9 9 0 47 130 53 465 22z m-126 -166 c10 -6 -35
-9 -132 -10 -122 0 -158 -4 -208 -20 -34 -12 -64 -18 -67 -15 -12 12 36 46 78
55 53 11 306 3 329 -10z"/>
</g>
</svg>
