<?xml version="1.0" encoding="iso-8859-1"?>
<!-- Generator: Adobe Illustrator 19.0.0, SVG Export Plug-In . SVG Version: 6.00 Build 0)  -->
<svg version="1.1" id="Capa_1" xmlns="http://www.w3.org/2000/svg" xmlns:xlink="http://www.w3.org/1999/xlink" x="0px" y="0px"
	 viewBox="0 0 512 512" style="enable-background:new 0 0 512 512;" xml:space="preserve">
<path style="fill:#EFEFEF;" d="M179.67,284.047c13.453,0,23.703-12.053,21.542-25.331l-5.316-32.663
	c-1.533-7.757-2.408-20.655-17.266-26.901c-1.387-0.582-4.545-1.453-4.481-1.434c-65.158-23.017-5.193-1.835-34.012-11.981
	l-14.435-8.937v-17.179c-15.488,7.797-34.496,8.395-50.322,1.084l0.01,16.094l-14.842,9.093l-7.648,2.629h-0.016l0.003,0.005
	c-0.112,0.039-31.381,11.11-29.363,10.203c-5.313,1.984-9.941,5.414-13.079,10.27c-3.201,4.954-1.706,3.117-9.928,49.114
	c-2.416,13.519,7.977,25.932,21.711,25.932L179.67,284.047L179.67,284.047z"/>
<path style="fill:#DDDDDD;" d="M17.547,258.115c7.974-54.729,5.948-54.397,11.764-61.303c-5.997,2.07-5.863,1.954-5.785,1.919
	c-5.313,1.984-9.941,5.414-13.079,10.27c-3.201,4.954-1.706,3.117-9.928,49.114c-2.416,13.519,7.978,25.932,21.711,25.932h17.029
	C25.524,284.047,15.131,271.633,17.547,258.115z"/>
<path style="fill:#EAB883;" d="M99.683,200.459l29.309-21.623l0,0l-3.288-2.036v-17.179c-15.488,7.797-34.496,8.395-50.322,1.084
	l0.01,16.094l-3.323,2.036L99.683,200.459z"/>
<path style="fill:#E0A773;" d="M99.683,200.458v-34.619c-8.34,0.064-16.688-1.617-24.3-5.135l0.01,16.095l-3.323,2.036
	L99.683,200.458z"/>
<g>
	<path style="fill:#DDDDDD;" d="M75.392,176.799l24.29,23.658l-21.681,15.09c-3.164,2.202-7.556,0.727-8.75-2.938l-8.701-26.716
		L75.392,176.799z"/>
	<path style="fill:#DDDDDD;" d="M125.704,176.799l-26.021,23.658l21.682,15.089c3.164,2.202,7.556,0.727,8.749-2.938l10.024-26.872
		L125.704,176.799z"/>
</g>
<path style="fill:#EF3C3C;" d="M109.467,233.861l-19.585-0.046l-13.378,50.272c35.079,0,11.293,0,46.36,0L109.467,233.861z"/>
<polygon style="fill:#DD2F2F;" points="109.467,233.861 89.881,233.815 76.503,284.087 96.731,284.087 109.678,234.653 "/>
<path style="fill:#F94A46;" d="M99.683,200.459L81.48,213.127l8.431,20.765c6.835,0,12.708,0,19.542,0l8.431-20.765L99.683,200.459z
	"/>
<path style="fill:#ED3E3E;" d="M96.736,202.51L81.48,213.127l8.431,20.765c6.835,0,12.708,0,19.542,0l0.012-0.031L96.736,202.51z"/>
<path style="fill:#EFEFEF;" d="M490.001,284.047c13.453,0,23.703-12.053,21.543-25.331l-5.316-32.663
	c-1.533-7.757-2.408-20.655-17.266-26.901c-1.387-0.582-4.545-1.453-4.481-1.434c-65.158-23.017-5.193-1.835-34.012-11.981
	l-14.435-8.937v-17.179c-15.488,7.797-34.496,8.395-50.322,1.084l0.01,16.094l-14.842,9.093l-7.648,2.629h-0.017l0.003,0.005
	c-0.112,0.039-31.381,11.11-29.363,10.203c-8.223,3.071-15.175,9.83-16.147,19.29c-0.339,3.292-3.814,23.044-6.861,40.094
	c-2.416,13.519,7.977,25.932,21.711,25.932L490.001,284.047L490.001,284.047z"/>
<path style="fill:#DDDDDD;" d="M327.878,258.115c7.974-54.729,5.948-54.397,11.764-61.303c-5.997,2.07-5.863,1.954-5.785,1.919
	c-8.223,3.071-15.175,9.83-16.147,19.29c-0.338,3.292-3.814,23.044-6.861,40.094c-2.416,13.519,7.978,25.932,21.711,25.932h17.029
	C335.855,284.047,325.461,271.633,327.878,258.115z"/>
<path style="fill:#EAB883;" d="M410.014,200.459l29.309-21.623l0,0l-3.288-2.036v-17.179c-15.488,7.797-34.496,8.395-50.322,1.084
	l0.01,16.094l-3.323,2.036L410.014,200.459z"/>
<path style="fill:#E0A773;" d="M410.014,200.458v-34.619c-8.34,0.064-16.688-1.617-24.3-5.135l0.01,16.095l-3.323,2.036
	L410.014,200.458z"/>
<g>
	<path style="fill:#DDDDDD;" d="M385.724,176.799l24.29,23.658l-21.682,15.089c-3.164,2.202-7.556,0.727-8.75-2.938l-8.701-26.716
		L385.724,176.799z"/>
	<path style="fill:#DDDDDD;" d="M436.035,176.799l-26.021,23.658l21.682,15.089c3.164,2.202,7.556,0.727,8.749-2.938l10.024-26.872
		L436.035,176.799z"/>
</g>
<path style="fill:#EF3C3C;" d="M419.797,233.861l-19.585-0.046l-13.378,50.272c35.079,0,11.293,0,46.36,0L419.797,233.861z"/>
<polygon style="fill:#DD2F2F;" points="419.797,233.861 400.212,233.815 386.834,284.087 407.062,284.087 420.008,234.653 "/>
<path style="fill:#F94A46;" d="M410.014,200.459l-18.203,12.668l8.431,20.765c6.835,0,12.708,0,19.542,0l8.431-20.765
	L410.014,200.459z"/>
<path style="fill:#ED3E3E;" d="M407.068,202.51l-15.256,10.617l8.431,20.765c6.835,0,12.708,0,19.542,0l0.012-0.031L407.068,202.51z
	"/>
<path style="fill:#93482B;" d="M486.37,72.1c-4.356-85.959-126.538-99.324-149.433-16.374c-3.348,12.174-2.82,18.862-2.782,45.126
	h152.327C486.487,74.023,486.484,74.364,486.37,72.1z"/>
<path style="fill:#873921;" d="M389.568,55.726c7.467-27.055,25.5-43.857,46.559-51.242
	c-47.834-16.351-97.643,13.504-101.689,65.435c-0.267,3.37-0.297,20.589-0.283,30.934h52.63
	C386.744,71.467,386.552,66.692,389.568,55.726z"/>
<g>
	<path style="fill:#EAB883;" d="M357.029,91.993c-13.221-4.712-28.576,4.05-28.576,16.833c0,12.78,15.354,21.546,28.576,16.834
		V91.993z"/>
	<path style="fill:#EAB883;" d="M463.634,91.993c13.221-4.712,28.576,4.05,28.576,16.833c0,12.78-15.354,21.546-28.576,16.834
		V91.993z"/>
</g>
<g>
	<path style="fill:#E0A773;" d="M330.374,101.309c-1.221,2.265-1.922,4.799-1.922,7.518c0,12.78,15.354,21.546,28.576,16.834
		v-15.035C346.619,114.336,334.894,109.689,330.374,101.309z"/>
	<path style="fill:#E0A773;" d="M463.634,110.625v15.035c16.902,6.023,34.644-9.541,26.656-24.351
		C485.77,109.689,474.044,114.336,463.634,110.625z"/>
</g>
<path style="fill:#F7CF9C;" d="M463.142,72.076c1.41,0.136,2.495,1.306,2.495,2.723c0,46.565,0.03,39.757-0.078,41.922
	c-3.164,62.435-91.911,72.144-108.54,11.893c-0.916-3.332-1.515-6.443-1.816-10.308c-0.31-3.91-0.181-25.138-0.181-25.071
	c0-10.844,9.624-19.117,20.357-17.568c16.904,2.44,41.578,1.492,63.108-16.911c2.213-1.891,5.569-1.28,6.982,1.264
	C448.137,64.824,453.441,71.14,463.142,72.076z"/>
<path style="fill:#EAB883;" d="M388.856,128.614c-2.335-8.494-2.099-10.266-2.007-51.996c-4.093-0.088-7.952-0.445-11.47-0.952
	c-10.733-1.549-20.357,6.725-20.357,17.568c0-0.068-0.129,21.16,0.181,25.071c2.801,35.945,36.152,58.149,70.646,48.53
	C409.21,162.103,394.653,149.612,388.856,128.614z"/>
<g>
	<path style="fill:#DDDDDD;" d="M476.945,255.979c0-4.23-3.429-7.658-7.658-7.658s-7.658,3.428-7.658,7.658v28.069h15.317v-28.069
		H476.945z"/>
	<path style="fill:#DDDDDD;" d="M48.143,284.007v-28.275c0-4.267-3.459-7.726-7.726-7.726s-7.726,3.459-7.726,7.726v28.275H48.143z"
		/>
</g>
<path style="fill:#93482B;" d="M351.331,242.786c-5.532-109.163-160.698-126.137-189.773-20.795
	c-4.251,15.461-3.581,23.953-3.534,57.308h193.449C351.48,245.228,351.475,245.659,351.331,242.786z"/>
<path style="fill:#873921;" d="M215.755,240.015c2.907-37.296,26.609-72.718,66.974-84.609
	c-47.371-13.638-104.642,6.701-121.171,66.585c-4.251,15.461-3.581,23.953-3.534,57.308h57.372
	C215.378,266.163,215.417,244.295,215.755,240.015z"/>
<path style="fill:#EFEFEF;" d="M356.184,511.949c17.061,0,30.059-15.285,27.319-32.124l-6.741-41.421
	c-1.944-9.837-3.054-26.195-21.895-34.115c-1.759-0.739-5.763-1.843-5.683-1.819c-82.632-29.189-6.585-2.327-43.133-15.194
	l-18.305-11.334v-21.786c-19.641,9.888-43.746,10.647-63.816,1.375l0.013,20.411l-18.823,11.531l-9.699,3.335h-0.021l0.003,0.006
	c-0.11,0.038-39.797,14.089-37.236,12.939c-10.427,3.894-19.244,12.466-20.477,24.463c-0.429,4.174-4.836,29.223-8.701,50.846
	c-3.065,17.144,10.116,32.885,27.532,32.885L356.184,511.949L356.184,511.949z"/>
<path style="fill:#DDDDDD;" d="M150.587,479.062c10.284-65.436,6.527-67.777,14.918-77.742c-7.606,2.625-7.435,2.477-7.336,2.433
	c-10.427,3.894-19.244,12.466-20.477,24.463c-0.429,4.174-4.836,29.223-8.701,50.846c-3.065,17.144,10.116,32.885,27.532,32.885
	h21.596C160.703,511.949,147.522,496.206,150.587,479.062z"/>
<path style="fill:#EAB883;" d="M254.749,405.945l37.168-27.422l0,0l-4.169-2.581v-21.786c-19.641,9.888-43.746,10.647-63.816,1.375
	l0.013,20.411l-4.213,2.581L254.749,405.945z"/>
<path style="fill:#E0A773;" d="M254.747,405.945v-43.902c-10.575,0.082-21.163-2.051-30.817-6.511l0.013,20.411l-4.213,2.581
	L254.747,405.945z"/>
<g>
	<path style="fill:#DDDDDD;" d="M223.944,375.943l30.804,30.003l-27.496,19.135c-4.012,2.792-9.582,0.922-11.096-3.727
		l-11.035-33.881L223.944,375.943z"/>
	<path style="fill:#DDDDDD;" d="M287.747,375.943l-32.999,30.003l27.496,19.135c4.012,2.792,9.582,0.922,11.096-3.727l12.713-34.079
		L287.747,375.943z"/>
</g>
<path style="fill:#EF3C3C;" d="M267.155,448.305l-24.838-0.058L225.352,512c19.606,0,39.199,0,58.791,0L267.155,448.305z"/>
<polygon style="fill:#DD2F2F;" points="267.155,448.305 242.318,448.247 225.352,512 251.004,512 267.422,449.309 "/>
<g>
	<path style="fill:#EAB883;" d="M187.073,268.049c-16.79-5.983-36.291,5.145-36.291,21.378c0,16.229,19.499,27.362,36.291,21.378
		V268.049z"/>
	<path style="fill:#EAB883;" d="M322.456,268.049c16.79-5.983,36.291,5.145,36.291,21.378c0,16.229-19.499,27.362-36.291,21.378
		V268.049z"/>
</g>
<g>
	<path style="fill:#E0A773;" d="M153.581,279.245c-11.017,18.861,11.693,39.327,33.492,31.559v-20.362
		C174.118,295.059,159.562,289.484,153.581,279.245z"/>
	<path style="fill:#E0A773;" d="M322.457,290.443v20.362c21.798,7.768,44.509-12.698,33.492-31.559
		C349.968,289.484,335.412,295.059,322.457,290.443z"/>
</g>
<path style="fill:#F7CF9C;" d="M321.83,242.754c1.791,0.173,3.169,1.659,3.169,3.459c0,59.135,0.038,50.489-0.1,53.239
	c-4.018,79.29-116.722,91.619-137.841,15.104c-1.163-4.231-1.924-8.182-2.306-13.091c-0.393-4.966-0.23-31.925-0.23-31.839
	c0-13.772,12.222-24.278,25.852-22.311c21.468,3.099,52.802,1.895,80.143-21.476c2.809-2.401,7.073-1.626,8.867,1.606
	C302.776,233.544,309.513,241.565,321.83,242.754z"/>
<path style="fill:#EAB883;" d="M215.656,301.465c-0.335-4.234-0.266-42.418-0.238-53.533c-1.731-0.178-3.418-0.383-5.042-0.618
	c-13.63-1.968-25.852,8.539-25.852,22.311c0-0.086-0.164,26.872,0.23,31.839c3.335,42.799,41.482,71.857,84.872,62.804
	C238.02,357.544,217.978,331.257,215.656,301.465z"/>
<g>
	<path style="fill:#DDDDDD;" d="M187.225,475.989c0-4.267-3.459-7.726-7.726-7.726c-4.266,0-7.726,3.459-7.726,7.726v35.959h15.451
		v-35.959H187.225z"/>
	<path style="fill:#DDDDDD;" d="M337.883,475.989c0-4.267-3.459-7.726-7.726-7.726c-4.267,0-7.726,3.459-7.726,7.726v35.959h15.451
		L337.883,475.989L337.883,475.989z"/>
</g>
<path style="fill:#F94A46;" d="M254.749,405.945l-23.084,16.064l10.692,26.334c8.667,0,16.115,0,24.783,0l10.693-26.334
	L254.749,405.945z"/>
<path style="fill:#ED3E3E;" d="M251.011,408.546l-19.347,13.464l10.692,26.334c8.667,0,16.115,0,24.783,0l0.016-0.039
	L251.011,408.546z"/>
<path style="fill:#93482B;" d="M175.722,72.1C171.366-13.857,49.184-27.224,26.289,55.726c-3.348,12.174-2.82,18.862-2.782,45.126
	h152.327C175.839,74.023,175.836,74.364,175.722,72.1z"/>
<path style="fill:#873921;" d="M78.92,55.726c7.467-27.055,25.5-43.857,46.559-51.242C87.505-8.498,39.748,6.968,26.289,55.726
	c-3.348,12.174-2.819,18.861-2.782,45.126h52.63C76.096,71.467,75.904,66.692,78.92,55.726z"/>
<g>
	<path style="fill:#EAB883;" d="M46.38,91.993c-13.221-4.712-28.576,4.05-28.576,16.833c0,12.78,15.354,21.546,28.576,16.834V91.993
		z"/>
	<path style="fill:#EAB883;" d="M152.985,91.993c13.221-4.712,28.576,4.05,28.576,16.833c0,12.78-15.354,21.546-28.576,16.834
		V91.993z"/>
</g>
<g>
	<path style="fill:#E0A773;" d="M19.726,101.309c-7.993,14.819,9.76,30.372,26.656,24.351v-15.035
		C35.971,114.336,24.245,109.689,19.726,101.309z"/>
	<path style="fill:#E0A773;" d="M152.985,110.625v15.035c16.902,6.023,34.644-9.541,26.656-24.351
		C175.121,109.689,163.395,114.336,152.985,110.625z"/>
</g>
<path style="fill:#F7CF9C;" d="M152.493,72.076c1.41,0.136,2.495,1.306,2.495,2.723c0,46.565,0.03,39.757-0.078,41.922
	c-3.164,62.435-91.911,72.144-108.54,11.893c-0.916-3.332-1.515-6.443-1.816-10.308c-0.31-3.91-0.181-25.138-0.181-25.071
	c0-10.844,9.624-19.117,20.357-17.568c16.904,2.44,41.578,1.492,63.108-16.911c2.213-1.891,5.569-1.28,6.982,1.264
	C137.488,64.824,142.793,71.14,152.493,72.076z"/>
<path style="fill:#EAB883;" d="M76.393,118.306c-0.251-3.164-0.214-31.156-0.191-41.687c-4.093-0.088-7.952-0.445-11.47-0.952
	c-10.733-1.549-20.357,6.725-20.357,17.568c0-0.068-0.129,21.16,0.181,25.071c2.801,35.945,36.152,58.149,70.646,48.53
	C92.175,160.286,78.101,140.232,76.393,118.306z"/>
<g>
</g>
<g>
</g>
<g>
</g>
<g>
</g>
<g>
</g>
<g>
</g>
<g>
</g>
<g>
</g>
<g>
</g>
<g>
</g>
<g>
</g>
<g>
</g>
<g>
</g>
<g>
</g>
<g>
</g>
</svg>
